# xmcd
#
# Track frame offsets:
#	150
#	14198
#	22649
#	36053
#	43231
#	55247
#	68786
#	78083
#
# Disc length: 1207 seconds
#
# Revision: 1
# Processed by: cddbd v1.5.1PL0 Copyright (c) Steve Scherf et al.
# Submitted via: audiograbber 1.83.01
#
DISCID=5d04b508
DTITLE=Foy Willing and The Riders of the Purple Sage - Foy Willing and The Riders o
DTITLE=f the Purple Sage
DYEAR=1900
DGENRE=
TTITLE0=Cool Water
TTITLE1=Shortnin' Bread
TTITLE2=Tumbling Tumbleweeds
TTITLE3=Bile Dem Cabbage Down
TTITLE4=Buffalo Gals
TTITLE5=Twilight On The Trail
TTITLE6=Casy Jones
TTITLE7=The Preacher And The Bear
EXTD=
EXTT0=
EXTT1=
EXTT2=
EXTT3=
EXTT4=
EXTT5=
EXTT6=
EXTT7=
PLAYORDER=
